<svg fill="#FFFFFF" xmlns="http://www.w3.org/2000/svg"  viewBox="0 0 80 80" width="80px" height="80px"><path d="M 6.6269531 8.2929688 C 6.3843057 8.535616 6.1449743 8.7778552 5.9042969 9.0195312 C 3.3600711 11.563757 3.3600711 15.719446 5.9042969 18.263672 C 7.6026672 19.966012 9.3014438 21.668667 11 23.371094 L 11 44.267578 C 11 47.411068 13.522034 50 16.632812 50 L 24.929688 50 C 24.915259 50.237636 24.896484 50.474429 24.896484 50.716797 L 24.896484 51.570312 A 1.0001 1.0001 0 0 0 24.898438 51.636719 C 21.960862 53.500679 20 56.772913 20 60.5 C 20 66.287144 24.712852 71 30.5 71 C 35.058506 71 38.939626 68.070009 40.386719 64 L 59.142578 64 C 59.855485 67.969641 63.330127 71 67.5 71 C 72.182578 71 76 67.182575 76 62.5 C 76 59.054961 73.92955 56.084753 70.972656 54.751953 A 1.0001 1.0001 0 0 0 70.783203 54.224609 C 70.333425 50.030467 67.771497 46.425696 64.037109 45.160156 C 64.252794 43.997208 64 42.735111 64 41.105469 C 64 37.782868 61.454539 35 58.25 35 L 55.617188 35 C 55.042794 33.851458 54.469529 32.701868 53.894531 31.552734 A 1.0001 1.0001 0 0 0 53 31 L 48 31 A 1.0001 1.0001 0 0 0 47.105469 31.552734 C 46.530471 32.701868 45.957206 33.851458 45.382812 35 L 44 35 A 1.0001 1.0001 0 0 0 43 36 L 43 41.390625 C 41.286368 41.064612 39.349513 40.68983 36.693359 40.175781 C 35.927431 40.027492 35.169178 39.975684 34.427734 40.011719 C 33.293451 40.066846 32.204233 40.338075 31.1875 40.773438 C 23.230505 32.798838 15.27436 24.824206 7.3183594 16.849609 C 5.5385851 15.069835 5.5385851 12.213368 7.3183594 10.433594 L 7.3183594 10.431641 L 7.3203125 10.431641 C 7.5613125 10.189641 7.8019426 9.9480573 8.0429688 9.7070312 L 6.6269531 8.2929688 z M 13 25.375 C 18.458373 30.84571 23.916664 36.316703 29.375 41.787109 C 28.504249 42.404402 27.724153 43.160423 27.070312 44.037109 L 27.101562 43.859375 L 26.488281 43.205078 L 26.142578 43.142578 L 25.341797 43.542969 L 25.183594 44.425781 L 25.794922 45.080078 L 26.142578 45.142578 L 26.4375 44.994141 C 25.898762 45.906571 25.490287 46.916961 25.228516 48 L 16.632812 48 C 14.625591 48 13 46.354089 13 44.267578 L 13 25.375 z M 14.828125 31.828125 L 14.027344 32.230469 L 13.869141 33.111328 L 14.482422 33.765625 L 14.828125 33.828125 L 15.628906 33.427734 L 15.787109 32.544922 L 15.175781 31.890625 L 14.828125 31.828125 z M 48.617188 33 L 52.382812 33 C 52.716096 33.666425 53.049506 34.333195 53.382812 35 L 48.75 35 L 47.617188 35 C 47.950494 34.333195 48.283903 33.666425 48.617188 33 z M 17.65625 34.65625 L 16.855469 35.058594 L 16.697266 35.939453 L 17.310547 36.595703 L 17.65625 36.65625 L 18.457031 36.255859 L 18.615234 35.373047 L 18.003906 34.71875 L 17.65625 34.65625 z M 45 37 L 45.835938 37 A 1.0001 1.0001 0 0 0 46.154297 37 L 48.75 37 L 54.851562 37 A 1.0001 1.0001 0 0 0 55.15625 37 L 58.25 37 C 60.293461 37 62 38.788069 62 41.105469 C 62 42.779941 62.080559 44.154971 62.050781 44.714844 C 52.865085 43.164194 49.076354 42.521745 45 41.761719 L 45 37 z M 20.484375 37.484375 L 19.683594 37.886719 L 19.525391 38.769531 L 20.138672 39.423828 L 20.484375 39.484375 L 21.287109 39.083984 L 21.443359 38.201172 L 20.832031 37.546875 L 20.484375 37.484375 z M 23.314453 40.314453 L 22.511719 40.714844 L 22.355469 41.597656 L 22.966797 42.251953 L 23.314453 42.314453 L 24.115234 41.912109 L 24.273438 41.029297 L 23.660156 40.375 L 23.314453 40.314453 z M 34.505859 42.005859 C 35.097235 41.979193 35.701928 42.022414 36.3125 42.140625 C 47.452316 44.296525 47.09671 44.219187 62.708984 46.855469 C 65.920163 47.589959 68.388503 50.510515 68.880859 54.123047 C 68.430173 54.048739 67.971218 54 67.5 54 C 64.823123 54 62.432901 55.249815 60.873047 57.193359 L 60.958984 56.716797 L 60.347656 56.0625 L 60 56 L 59.199219 56.402344 L 59.041016 57.283203 L 59.652344 57.9375 L 60 58 L 60.4375 57.779297 C 59.618314 59.000189 59.116675 60.446617 59.025391 62 L 40.880859 62 C 40.951649 61.508917 41 61.010283 41 60.5 C 41 59.527432 40.856362 58.589928 40.607422 57.695312 L 40.800781 57.597656 L 40.958984 56.716797 L 40.347656 56.0625 L 40 56 L 39.976562 56.011719 C 38.28864 52.465209 34.680128 50 30.5 50 C 29.233943 50 28.025517 50.237369 26.900391 50.650391 C 26.931994 45.750742 30.385205 42.191672 34.505859 42.005859 z M 30.5 52 C 35.206269 52 39 55.793734 39 60.5 C 39 65.206266 35.206269 69 30.5 69 C 25.793731 69 22 65.206266 22 60.5 C 22 55.793734 25.793731 52 30.5 52 z M 30.5 56 C 29.083334 56 27.893559 56.567255 27.126953 57.429688 C 26.360347 58.292119 26 59.402778 26 60.5 C 26 61.597222 26.360347 62.707881 27.126953 63.570312 C 27.893559 64.432744 29.083334 65 30.5 65 C 31.916666 65 33.106441 64.432744 33.873047 63.570312 C 34.639653 62.707881 35 61.597222 35 60.5 C 35 59.402778 34.639653 58.292119 33.873047 57.429688 C 33.106441 56.567256 31.916666 56 30.5 56 z M 44 56 L 43.199219 56.402344 L 43.041016 57.283203 L 43.652344 57.9375 L 44 58 L 44.800781 57.597656 L 44.958984 56.716797 L 44.347656 56.0625 L 44 56 z M 48 56 L 47.199219 56.402344 L 47.041016 57.283203 L 47.652344 57.9375 L 48 58 L 48.800781 57.597656 L 48.958984 56.716797 L 48.347656 56.0625 L 48 56 z M 52 56 L 51.199219 56.402344 L 51.041016 57.283203 L 51.652344 57.9375 L 52 58 L 52.800781 57.597656 L 52.958984 56.716797 L 52.347656 56.0625 L 52 56 z M 56 56 L 55.199219 56.402344 L 55.041016 57.283203 L 55.652344 57.9375 L 56 58 L 56.800781 57.597656 L 56.958984 56.716797 L 56.347656 56.0625 L 56 56 z M 67.5 56 C 71.101699 56 74 58.898304 74 62.5 C 74 66.101696 71.101699 69 67.5 69 C 63.898301 69 61 66.101696 61 62.5 C 61 58.898304 63.898301 56 67.5 56 z M 30.5 58 C 31.416666 58 31.976893 58.307745 32.376953 58.757812 C 32.777013 59.207881 33 59.847222 33 60.5 C 33 61.152778 32.777013 61.792119 32.376953 62.242188 C 31.976893 62.692256 31.416666 63 30.5 63 C 29.583334 63 29.023107 62.692255 28.623047 62.242188 C 28.222987 61.792119 28 61.152778 28 60.5 C 28 59.847222 28.222987 59.207881 28.623047 58.757812 C 29.023107 58.307744 29.583334 58 30.5 58 z M 67.5 60 A 2.5 2.5 0 0 0 67.5 65 A 2.5 2.5 0 0 0 67.5 60 z"/></svg>