<svg fill="#FFFFFF" xmlns="http://www.w3.org/2000/svg"  viewBox="0 0 80 80" width="80px" height="80px"><path d="M 51.960938 7.9296875 A 1.0001 1.0001 0 0 0 51.806641 7.9394531 C 51.806641 7.9394531 50.503437 8.1244488 48.927734 8.5878906 C 47.352032 9.0513325 45.468077 9.7545792 44.171875 11.050781 C 42.617965 12.604691 42.617965 15.153121 44.171875 16.707031 C 45.725149 18.261632 48.274851 18.261632 49.828125 16.707031 C 51.124383 15.410773 51.825626 13.52712 52.289062 11.951172 C 52.7525 10.375224 52.939453 9.0703125 52.939453 9.0703125 A 1.0001 1.0001 0 0 0 51.960938 7.9296875 z M 50.628906 10.25 C 50.534606 10.699735 50.554906 10.761646 50.371094 11.386719 C 49.950781 12.816021 49.238805 14.468227 48.414062 15.292969 C 47.625338 16.082368 46.374662 16.082368 45.585938 15.292969 C 44.795848 14.502879 44.795847 13.254934 45.585938 12.464844 C 46.410734 11.640046 48.06314 10.928122 49.492188 10.507812 C 50.117596 10.32387 50.179121 10.344304 50.628906 10.25 z M 54.96875 21.929688 A 1.0001 1.0001 0 0 0 54.804688 21.949219 C 54.804688 21.949219 52.979441 22.3128 50.794922 23.041016 C 48.610403 23.769231 46.044254 24.814537 44.394531 26.464844 C 42.450307 28.409068 42.450307 31.590932 44.394531 33.535156 C 46.338604 35.479229 49.520893 35.480351 51.464844 33.535156 C 53.11515 31.885433 54.160456 29.319284 54.888672 27.134766 C 55.616888 24.950248 55.980469 23.125 55.980469 23.125 A 1.0001 1.0001 0 0 0 54.96875 21.929688 z M 71.011719 22.929688 A 1.0001 1.0001 0 0 0 70.859375 22.939453 C 70.859375 22.939453 69.554464 23.124454 67.978516 23.587891 C 66.402568 24.051328 64.518914 24.754523 63.222656 26.050781 C 61.668746 27.604691 61.668746 30.153121 63.222656 31.707031 C 64.776566 33.260941 67.324996 33.260941 68.878906 31.707031 C 70.175164 30.410773 70.876407 28.52712 71.339844 26.951172 C 71.803281 25.375224 71.990234 24.070313 71.990234 24.070312 A 1.0001 1.0001 0 0 0 71.011719 22.929688 z M 53.578125 24.351562 C 53.410121 25.046467 53.381627 25.327845 52.990234 26.501953 C 52.3042 28.559934 51.229475 30.942817 50.050781 32.121094 A 1.0001 1.0001 0 0 0 50.048828 32.121094 C 48.868779 33.301899 46.988521 33.301021 45.808594 32.121094 C 44.628818 30.941318 44.628818 29.058682 45.808594 27.878906 C 46.986871 26.700213 49.369753 25.623534 51.427734 24.9375 C 52.602292 24.545958 52.883237 24.519545 53.578125 24.351562 z M 69.679688 25.25 C 69.585387 25.699735 69.605688 25.761646 69.421875 26.386719 C 69.001562 27.816021 68.289586 29.468227 67.464844 30.292969 C 66.674754 31.083059 65.426809 31.083059 64.636719 30.292969 C 63.846629 29.502879 63.846629 28.254934 64.636719 27.464844 C 65.461461 26.640102 67.113667 25.928126 68.542969 25.507812 C 69.168488 25.323867 69.22981 25.344306 69.679688 25.25 z M 22 36 C 20.180556 36 17.592658 36.793669 14.716797 38.607422 C 11.840936 40.421175 8.7300138 43.281501 6.1484375 47.476562 A 1.0001 1.0001 0 0 0 7.1640625 48.986328 C 9.8708103 48.535203 11.829236 49.407782 14.052734 50.519531 C 16.276233 51.63128 18.722222 53 22 53 C 25.333333 53 27.965646 51.305037 29.144531 48.947266 C 29.960393 47.315542 29.984033 45.370039 29.207031 43.570312 C 30.115464 44.021893 31.01284 44.78277 31.576172 46.134766 C 32.648657 48.70873 32.542528 53.678617 28.105469 62.552734 A 1.0001 1.0001 0 0 0 27.998047 63.078125 C 26.267782 66.399269 25 70.571742 25 76 A 1.0001 1.0001 0 1 0 27 76 C 27 67.735294 29.883952 62.523832 32.970703 59.318359 C 34.514079 57.715623 36.11619 56.620551 37.431641 55.933594 C 37.638633 55.825498 37.639832 55.874144 37.835938 55.787109 C 37.392767 56.865413 37 58.215908 37 60 C 37 62.333333 38.213933 64.164465 39.787109 65.308594 C 41.360286 66.452722 43.277778 67 45 67 C 48.880952 67 52.932431 64.901998 56.900391 63.166016 C 60.86835 61.430033 64.672111 60.088794 67.724609 60.960938 A 1.0001 1.0001 0 0 0 68.949219 59.683594 C 67.891244 56.509668 65.578708 52.409632 62.068359 49.029297 C 58.558011 45.648961 53.80303 43 48 43 C 44.833333 43 42.153336 43.783263 40.208984 45.033203 C 38.264633 46.283144 37 48.055556 37 50 C 37 51.646032 37.553308 52.832284 38.144531 53.615234 C 37.599566 53.807078 37.208048 53.793458 36.505859 54.160156 C 35.337608 54.770243 33.997779 55.742293 32.65625 56.939453 C 34.500983 51.564999 34.47195 47.880728 33.423828 45.365234 C 32.255763 42.561878 30.035233 41.647388 28.222656 41.326172 C 28.505181 40.330099 28.613999 39.246852 27.972656 38.220703 C 27.085634 36.801468 25.166667 36 22 36 z M 22 38 C 24.833333 38 25.914366 38.698532 26.277344 39.279297 C 26.632275 39.847187 26.510024 40.69314 26.121094 41.498047 A 1.0001 1.0001 0 0 0 26.324219 42.748047 C 28.02156 44.47308 28.170271 46.423129 27.355469 48.052734 C 26.534354 49.694963 24.666667 51 22 51 C 19.277778 51 17.223767 49.86872 14.947266 48.730469 C 13.229425 47.871548 11.357785 47.023595 9.1289062 46.892578 C 11.262788 43.955299 13.590053 41.682008 15.783203 40.298828 C 18.407342 38.643831 20.819444 38 22 38 z M 23 41.011719 C 22.7375 41.011719 22.474063 41.104062 22.289062 41.289062 C 22.199062 41.389062 22.130078 41.499141 22.080078 41.619141 C 22.020078 41.739141 22 41.87 22 42 C 22 42.13 22.020078 42.260859 22.080078 42.380859 C 22.130078 42.500859 22.199063 42.610937 22.289062 42.710938 C 22.478062 42.890938 22.74 43 23 43 C 23.26 43 23.520937 42.890937 23.710938 42.710938 C 23.800938 42.610938 23.869922 42.500859 23.919922 42.380859 C 23.969922 42.260859 24 42.13 24 42 C 24 41.87 23.969922 41.739141 23.919922 41.619141 C 23.869922 41.499141 23.800937 41.389063 23.710938 41.289062 C 23.525938 41.104062 23.2625 41.011719 23 41.011719 z M 18.363281 41.900391 C 18.233703 41.893828 18.100953 41.913438 17.970703 41.960938 C 17.450703 42.150938 17.179141 42.720234 17.369141 43.240234 C 17.519141 43.650234 17.898594 43.900391 18.308594 43.900391 C 18.419594 43.900391 18.539437 43.879844 18.648438 43.839844 C 19.169438 43.649844 19.439 43.070781 19.25 42.550781 C 19.1075 42.168281 18.752016 41.920078 18.363281 41.900391 z M 14 44.011719 C 13.7375 44.011719 13.474062 44.104062 13.289062 44.289062 C 13.108063 44.479062 13 44.74 13 45 C 13 45.26 13.108062 45.520938 13.289062 45.710938 C 13.338063 45.750937 13.389453 45.790078 13.439453 45.830078 C 13.500453 45.870078 13.558141 45.899922 13.619141 45.919922 C 13.679141 45.949922 13.740781 45.970469 13.800781 45.980469 C 13.870781 45.990469 13.93 46 14 46 C 14.26 46 14.520937 45.890937 14.710938 45.710938 C 14.890937 45.520938 15 45.26 15 45 C 15 44.74 14.890938 44.479062 14.710938 44.289062 C 14.525938 44.104062 14.2625 44.011719 14 44.011719 z M 48 45 C 53.19697 45 57.441989 47.351039 60.681641 50.470703 C 63.41127 53.099235 65.200038 56.173398 66.320312 58.800781 C 62.956958 58.556845 59.475148 59.857186 56.099609 61.333984 C 52.067569 63.098002 48.119048 65 45 65 C 43.722222 65 42.139714 64.547278 40.962891 63.691406 C 39.786067 62.835535 39 61.666667 39 60 C 39 58.166667 39.45416 56.828009 39.894531 55.947266 C 40.323642 55.089044 40.667187 54.756293 40.685547 54.738281 A 1.0001 1.0001 0 0 0 40.431641 53.091797 C 40.418755 53.085713 40.150638 52.961735 39.78125 52.5 C 39.403142 52.027365 39 51.277778 39 50 C 39 48.944444 39.735367 47.716856 41.291016 46.716797 C 42.846664 45.716737 45.166667 45 48 45 z M 44 53.001953 C 43.869875 53.003203 43.738641 53.030078 43.619141 53.080078 C 43.489141 53.130078 43.389063 53.199062 43.289062 53.289062 C 43.108063 53.479063 43 53.73 43 54 C 43 54.27 43.108063 54.520938 43.289062 54.710938 C 43.478062 54.890938 43.74 55 44 55 C 44.13 55 44.260859 54.969922 44.380859 54.919922 C 44.500859 54.869922 44.609938 54.800938 44.710938 54.710938 C 44.890938 54.520938 45 54.26 45 54 C 45 53.74 44.890938 53.479062 44.710938 53.289062 C 44.609937 53.199063 44.500859 53.130078 44.380859 53.080078 C 44.260859 53.025078 44.130125 53.000703 44 53.001953 z M 48.089844 53.080078 C 47.539844 53.060078 47.070781 53.489063 47.050781 54.039062 C 47.020781 54.589063 47.45 55.060078 48 55.080078 L 48.050781 55.080078 C 48.580781 55.080078 49.020781 54.659141 49.050781 54.119141 C 49.069781 53.569141 48.639844 53.100078 48.089844 53.080078 z M 52.179688 53.359375 C 51.639687 53.309375 51.149844 53.709766 51.089844 54.259766 C 51.039844 54.809766 51.439234 55.299609 51.990234 55.349609 C 52.020234 55.359609 52.049844 55.359375 52.089844 55.359375 C 52.589844 55.359375 53.030078 54.970937 53.080078 54.460938 C 53.140078 53.910937 52.729687 53.419375 52.179688 53.359375 z M 56.279297 53.939453 C 55.739297 53.839453 55.219375 54.190469 55.109375 54.730469 C 55.010375 55.280469 55.370156 55.800391 55.910156 55.900391 C 55.970156 55.920391 56.029609 55.919922 56.099609 55.919922 C 56.568609 55.919922 56.990078 55.589375 57.080078 55.109375 C 57.179078 54.569375 56.829297 54.039453 56.279297 53.939453 z M 60.09375 55.011719 C 59.800547 54.986406 59.498313 55.086562 59.289062 55.289062 C 59.199063 55.379062 59.130078 55.489141 59.080078 55.619141 C 59.030078 55.739141 59 55.87 59 56 C 59 56.26 59.108063 56.520938 59.289062 56.710938 C 59.478062 56.890938 59.74 57 60 57 C 60.26 57 60.520938 56.890937 60.710938 56.710938 C 60.890938 56.520938 61 56.26 61 56 C 61 55.87 60.969922 55.739141 60.919922 55.619141 C 60.869922 55.489141 60.800938 55.379063 60.710938 55.289062 C 60.609938 55.199063 60.510859 55.130078 60.380859 55.080078 C 60.288359 55.042578 60.191484 55.020156 60.09375 55.011719 z"/></svg>