<svg fill="#FFFFFF" xmlns="http://www.w3.org/2000/svg"  viewBox="0 0 479.653 479.653" width="60px" height="60px"><path d="M477.128,75.196c-3.222-3.025-8.285-2.864-11.308,0.356c-2.237,2.383-4.661,4.855-7.263,7.331l-61.685-61.685	c2.474-2.602,4.946-5.026,7.328-7.263c3.22-3.025,3.378-8.088,0.354-11.309c-3.023-3.219-8.085-3.378-11.309-0.354	c-10.71,10.061-41.44,38.935-38.605,82.524L170.624,262.052c-5.214,5.022-1.574,13.762,5.551,13.762	c1.997,0,3.997-0.743,5.549-2.238l176.549-170.062c3.39,8.091,9.812,14.528,17.892,17.934L172.619,331.181	c-1.745,1.798-2.474,4.205-2.201,6.514c-0.268,2.341,0.49,4.776,2.285,6.572l23.953,23.953	c12.819,12.819,12.823,33.572-0.001,46.395l-2.258,2.258L62.877,285.35l2.258-2.258c12.791-12.79,33.604-12.792,46.395,0	l33.85,33.85c3.125,3.123,8.189,3.123,11.314,0c3.124-3.125,3.124-8.189,0-11.314l-33.851-33.85	c-19.029-19.03-49.993-19.026-69.022,0L2.343,323.256c-3.124,3.125-3.124,8.189,0,11.314c3.126,3.124,8.189,3.123,11.314,0	l37.905-37.905l24.748,24.748l-44.438,44.438c-3.124,3.125-3.124,8.189,0,11.314c3.126,3.124,8.189,3.123,11.314,0l44.438-44.438	l24.041,24.041l-51.51,51.509c-3.124,3.124-3.124,8.189,0,11.314c3.126,3.124,8.189,3.123,11.314,0l51.51-51.509l24.04,24.041	l-44.438,44.438c-3.124,3.125-3.124,8.189,0,11.314c3.126,3.124,8.189,3.123,11.314,0l44.438-44.438l24.748,24.748l-37.704,37.704	c-3.124,3.125-3.124,8.189,0,11.314c3.126,3.124,8.189,3.123,11.314,0l51.276-51.276c19.073-19.075,19.076-49.947,0-69.022	l-19.294-19.296L394.91,125.106c1.925,0.126,3.824,0.194,5.691,0.194c40.455,0,67.269-28.555,76.883-38.796	C480.509,83.283,480.35,78.22,477.128,75.196z M385.68,107.747c-6.892-1.417-12.261-6.786-13.679-13.679	c-5.164-25.105,3.186-45.145,14.522-60.59l59.754,59.754C430.839,104.565,410.802,112.909,385.68,107.747z"/></svg>